# xmcd
#
# Track frame offsets:
#	150
#	20998
#	39736
#	60143
#	80782
#	103527
#	123309
#	141565
#	157206
#	170611
#	189316
#	206344
#	223840
#	240713
#	262972
#	280727
#	296658
#	322210
#	342996
#
# Disc length: 4788 seconds
#
# Revision: 1
# Processed by: cddbd v1.5.2PL0 Copyright (c) Steve Scherf et al.
# Submitted via: audiograbber 1.83.01
#
DISCID=2e12b213
DTITLE=Various Artist - The Alligator Records 40th Anniversary Collection CD1
DYEAR=2011
DGENRE=Blues
TTITLE0=Koko Taylor - I'm a Woman
TTITLE1=Albert Collins - I Ain't Drunk
TTITLE2=Michael Burks - Strange Feeling
TTITLE3=Tommy Castro - Backup Plan
TTITLE4=Lil Ed and the Blues Imperials - Icicles in My Meatloaf
TTITLE5=Guitar Shorty - We the People
TTITLE6=Rick Estrin and the Nightcats - U B U
TTITLE7=Marcia Ball - The Party's Still Going On
TTITLE8=Roomful Of Blues - That's a Pretty Good Love
TTITLE9=Smokin' Joe Kubek - Have Blues Will Travel
TTITLE10=Son Seals - Going Home (Where Women Got Meat on Their Bones)
TTITLE11=Buddy Guy - Give Me My Coat and Shoes
TTITLE12=Janiva Magness - Slipped Tripped and Fell in Love
TTITLE13=Johnny Winter - Mojo Boogie
TTITLE14=Coco Montoya - Last Dirty Deal
TTITLE15=Corey Harris - Fish Ain't Bitin'
TTITLE16=Luther Allison - All the King's Horses
TTITLE17=Anders Osborne - Echoes of My Sins
TTITLE18=Lonnie Mack - Double Whammy
EXTD=
EXTT0=
EXTT1=
EXTT2=
EXTT3=
EXTT4=
EXTT5=
EXTT6=
EXTT7=
EXTT8=
EXTT9=
EXTT10=
EXTT11=
EXTT12=
EXTT13=
EXTT14=
EXTT15=
EXTT16=
EXTT17=
EXTT18=
PLAYORDER=
